<svg width="199" height="19" viewBox="0 0 199 19" fill="none" xmlns="http://www.w3.org/2000/svg">
  <path
    d="M9.008 18.36C7.312 18.36 5.792 18 4.448 17.28C3.12 16.56 2.08 15.544 1.328 14.232C0.576 12.904 0.2 11.368 0.2 9.624C0.2 7.88 0.576 6.352 1.328 5.04C2.08 3.712 3.12 2.688 4.448 1.968C5.792 1.232 7.312 0.863999 9.008 0.863999C11.328 0.863999 13.248 1.472 14.768 2.688V4.512C13.328 3.216 11.456 2.568 9.152 2.568C7.792 2.568 6.576 2.856 5.504 3.432C4.432 4.008 3.592 4.832 2.984 5.904C2.376 6.96 2.072 8.2 2.072 9.624C2.072 11.048 2.376 12.296 2.984 13.368C3.592 14.424 4.424 15.24 5.48 15.816C6.552 16.392 7.76 16.68 9.104 16.68C9.888 16.68 10.648 16.592 11.384 16.416C12.12 16.224 12.728 15.976 13.208 15.672V10.512H9.68V8.928H15.08V16.464C14.296 17.12 13.4 17.6 12.392 17.904C11.4 18.208 10.272 18.36 9.008 18.36ZM22.6094 18.36C21.0734 18.36 19.8894 17.944 19.0574 17.112C18.2414 16.28 17.8334 15.168 17.8334 13.776V6.48H19.6814V13.872C19.6814 15.888 20.7294 16.896 22.8254 16.896C23.7054 16.896 24.4734 16.704 25.1294 16.32C25.8014 15.936 26.4014 15.328 26.9294 14.496V6.48H28.7774V18H26.9774V16.272C25.9374 17.664 24.4814 18.36 22.6094 18.36ZM33.2851 3.984C32.9651 3.984 32.6931 3.872 32.4691 3.648C32.2451 3.424 32.1331 3.152 32.1331 2.832C32.1331 2.512 32.2451 2.24 32.4691 2.016C32.6931 1.792 32.9651 1.68 33.2851 1.68C33.6051 1.68 33.8771 1.792 34.1011 2.016C34.3411 2.24 34.4611 2.512 34.4611 2.832C34.4611 3.152 34.3411 3.424 34.1011 3.648C33.8771 3.872 33.6051 3.984 33.2851 3.984ZM32.3731 6.48H34.2211V18H32.3731V6.48ZM37.8284 0.263999H39.6764V18H37.8284V0.263999ZM43.0316 0.263999H44.8796V8.16C45.9836 6.8 47.5116 6.12 49.4636 6.12C50.9836 6.12 52.1116 6.52 52.8476 7.32C53.5996 8.12 53.9756 9.192 53.9756 10.536V18H52.1276V10.704C52.1276 9.712 51.8876 8.952 51.4076 8.424C50.9276 7.88 50.1596 7.608 49.1036 7.608C47.3276 7.608 45.9196 8.408 44.8796 10.008V18H43.0316V0.263999ZM63.4033 18.36C61.3073 18.36 59.6673 17.824 58.4833 16.752C57.3153 15.68 56.7313 14.184 56.7313 12.264C56.7313 10.376 57.2593 8.88 58.3153 7.776C59.3713 6.672 60.8753 6.12 62.8273 6.12C64.1393 6.12 65.2513 6.376 66.1633 6.888C67.0753 7.384 67.7633 8.072 68.2273 8.952C68.6913 9.832 68.9233 10.832 68.9233 11.952V12.96H58.4593C58.5233 14.272 59.0033 15.256 59.8993 15.912C60.8113 16.568 62.0433 16.896 63.5953 16.896C64.3473 16.896 65.0833 16.832 65.8033 16.704C66.5393 16.56 67.1953 16.368 67.7713 16.128V17.688C67.2913 17.88 66.6353 18.04 65.8033 18.168C64.9873 18.296 64.1873 18.36 63.4033 18.36ZM67.1953 11.64C67.1633 10.392 66.7793 9.408 66.0433 8.688C65.3073 7.968 64.2273 7.608 62.8033 7.608C61.4113 7.608 60.3473 7.984 59.6113 8.736C58.8753 9.472 58.4913 10.44 58.4593 11.64H67.1953ZM71.8128 6.48H73.6128V8.736C74.5408 7.232 76.2768 6.48 78.8208 6.48V7.968C76.0368 7.968 74.3168 8.888 73.6608 10.728V18H71.8128V6.48ZM81.2113 6.48H82.9873V8.28C84.0913 6.84 85.4593 6.12 87.0913 6.12C88.0513 6.12 88.7953 6.288 89.3233 6.624C89.8673 6.96 90.2593 7.464 90.4993 8.136C91.0113 7.448 91.6433 6.944 92.3953 6.624C93.1633 6.288 93.9473 6.12 94.7473 6.12C96.1233 6.12 97.1233 6.472 97.7473 7.176C98.3713 7.88 98.6833 8.92 98.6833 10.296V18H96.8593V10.512C96.8593 9.44 96.6673 8.688 96.2833 8.256C95.9153 7.824 95.2513 7.608 94.2913 7.608C92.9153 7.608 91.7793 8.224 90.8833 9.456C90.9313 9.68 90.9553 10.048 90.9553 10.56V18H89.1553V10.56C89.1553 9.488 88.9793 8.728 88.6273 8.28C88.2753 7.832 87.6193 7.608 86.6593 7.608C85.2833 7.608 84.0753 8.376 83.0353 9.912V18H81.2113V6.48ZM108.122 18.36C106.026 18.36 104.386 17.824 103.202 16.752C102.034 15.68 101.45 14.184 101.45 12.264C101.45 10.376 101.978 8.88 103.034 7.776C104.09 6.672 105.594 6.12 107.546 6.12C108.858 6.12 109.97 6.376 110.882 6.888C111.794 7.384 112.482 8.072 112.946 8.952C113.41 9.832 113.642 10.832 113.642 11.952V12.96H103.178C103.242 14.272 103.722 15.256 104.618 15.912C105.53 16.568 106.762 16.896 108.314 16.896C109.066 16.896 109.802 16.832 110.522 16.704C111.258 16.56 111.914 16.368 112.49 16.128V17.688C112.01 17.88 111.354 18.04 110.522 18.168C109.706 18.296 108.906 18.36 108.122 18.36ZM111.914 11.64C111.882 10.392 111.498 9.408 110.762 8.688C110.026 7.968 108.946 7.608 107.522 7.608C106.13 7.608 105.066 7.984 104.33 8.736C103.594 9.472 103.21 10.44 103.178 11.64H111.914Z"
    fill="#484848" />
  <path
    d="M124.982 1.224H136.622V4.272H128.63V8.16H134.51V11.088H128.63V14.952H136.622V18H124.982V1.224ZM142.765 18.36C141.901 18.36 140.973 18.264 139.981 18.072C139.005 17.896 138.237 17.64 137.677 17.304V14.472C138.317 14.856 139.085 15.168 139.981 15.408C140.877 15.648 141.709 15.768 142.477 15.768C143.133 15.768 143.613 15.712 143.917 15.6C144.221 15.488 144.373 15.28 144.373 14.976C144.373 14.736 144.285 14.544 144.109 14.4C143.933 14.24 143.661 14.104 143.293 13.992C142.941 13.864 142.349 13.68 141.517 13.44C140.541 13.152 139.773 12.864 139.213 12.576C138.669 12.272 138.253 11.896 137.965 11.448C137.693 11 137.557 10.424 137.557 9.72C137.557 8.52 138.029 7.624 138.973 7.032C139.933 6.424 141.229 6.12 142.861 6.12C143.661 6.12 144.485 6.208 145.333 6.384C146.197 6.544 146.861 6.76 147.325 7.032V9.792C146.861 9.488 146.253 9.24 145.501 9.048C144.765 8.856 144.045 8.76 143.341 8.76C142.685 8.76 142.173 8.824 141.805 8.952C141.453 9.08 141.277 9.32 141.277 9.672C141.277 9.976 141.445 10.208 141.781 10.368C142.133 10.528 142.781 10.728 143.725 10.968L144.205 11.088C145.213 11.36 145.997 11.664 146.557 12C147.117 12.32 147.509 12.712 147.733 13.176C147.973 13.624 148.093 14.192 148.093 14.88C148.093 15.936 147.637 16.784 146.725 17.424C145.813 18.048 144.493 18.36 142.765 18.36ZM155.395 18.36C154.211 18.36 153.155 18.112 152.227 17.616C151.315 17.104 150.595 16.392 150.067 15.48C149.555 14.552 149.299 13.48 149.299 12.264C149.299 11.064 149.555 10 150.067 9.072C150.579 8.144 151.299 7.424 152.227 6.912C153.155 6.384 154.211 6.12 155.395 6.12C156.259 6.12 157.051 6.24 157.771 6.48C158.491 6.72 159.099 7.064 159.595 7.512V0.263999H163.219V18H159.715V16.752C159.123 17.312 158.475 17.72 157.771 17.976C157.083 18.232 156.291 18.36 155.395 18.36ZM156.331 15.552C157.083 15.552 157.747 15.352 158.323 14.952C158.915 14.552 159.339 14.016 159.595 13.344V11.16C159.371 10.504 158.955 9.976 158.347 9.576C157.755 9.16 157.083 8.952 156.331 8.952C155.355 8.952 154.555 9.256 153.931 9.864C153.323 10.472 153.019 11.272 153.019 12.264C153.019 13.256 153.323 14.056 153.931 14.664C154.555 15.256 155.355 15.552 156.331 15.552ZM165.74 6.48H169.244V8.136C169.708 7.576 170.356 7.152 171.188 6.864C172.02 6.56 172.964 6.408 174.02 6.408V9.168C172.916 9.168 171.94 9.336 171.092 9.672C170.26 10.008 169.684 10.52 169.364 11.208V18H165.74V6.48ZM178.778 18.36C177.37 18.36 176.218 18.008 175.322 17.304C174.442 16.584 174.002 15.608 174.002 14.376C174.002 13.096 174.426 12.104 175.274 11.4C176.122 10.68 177.322 10.32 178.874 10.32C179.562 10.32 180.218 10.392 180.842 10.536C181.466 10.68 182.018 10.88 182.498 11.136V10.848C182.498 10.128 182.242 9.6 181.73 9.264C181.218 8.928 180.434 8.76 179.378 8.76C177.97 8.76 176.674 9.024 175.49 9.552V6.912C176.002 6.688 176.666 6.504 177.482 6.36C178.298 6.2 179.114 6.12 179.93 6.12C182.01 6.12 183.562 6.552 184.586 7.416C185.61 8.264 186.122 9.456 186.122 10.992V18H182.714V16.944C181.738 17.888 180.426 18.36 178.778 18.36ZM179.762 15.96C180.354 15.96 180.89 15.848 181.37 15.624C181.85 15.4 182.226 15.088 182.498 14.688V13.536C181.682 12.992 180.786 12.72 179.81 12.72C179.138 12.72 178.618 12.864 178.25 13.152C177.898 13.424 177.722 13.832 177.722 14.376C177.722 14.888 177.898 15.28 178.25 15.552C178.602 15.824 179.106 15.96 179.762 15.96ZM192.898 18.36C192.034 18.36 191.106 18.264 190.114 18.072C189.138 17.896 188.37 17.64 187.81 17.304V14.472C188.45 14.856 189.218 15.168 190.114 15.408C191.01 15.648 191.842 15.768 192.61 15.768C193.266 15.768 193.746 15.712 194.05 15.6C194.354 15.488 194.506 15.28 194.506 14.976C194.506 14.736 194.418 14.544 194.242 14.4C194.066 14.24 193.794 14.104 193.426 13.992C193.074 13.864 192.482 13.68 191.65 13.44C190.674 13.152 189.906 12.864 189.346 12.576C188.802 12.272 188.386 11.896 188.098 11.448C187.826 11 187.69 10.424 187.69 9.72C187.69 8.52 188.162 7.624 189.106 7.032C190.066 6.424 191.362 6.12 192.994 6.12C193.794 6.12 194.618 6.208 195.466 6.384C196.33 6.544 196.994 6.76 197.458 7.032V9.792C196.994 9.488 196.386 9.24 195.634 9.048C194.898 8.856 194.178 8.76 193.474 8.76C192.818 8.76 192.306 8.824 191.938 8.952C191.586 9.08 191.41 9.32 191.41 9.672C191.41 9.976 191.578 10.208 191.914 10.368C192.266 10.528 192.914 10.728 193.858 10.968L194.338 11.088C195.346 11.36 196.13 11.664 196.69 12C197.25 12.32 197.642 12.712 197.866 13.176C198.106 13.624 198.226 14.192 198.226 14.88C198.226 15.936 197.77 16.784 196.858 17.424C195.946 18.048 194.626 18.36 192.898 18.36Z"
    fill="#FF8400" />
</svg>